<?xml version="1.0" encoding="utf-8"?>
<!-- Generator: Adobe Illustrator 16.0.0, SVG Export Plug-In . SVG Version: 6.00 Build 0)  -->
<!DOCTYPE svg PUBLIC "-//W3C//DTD SVG 1.1//EN" "http://www.w3.org/Graphics/SVG/1.1/DTD/svg11.dtd">
<svg version="1.1" id="Layer_1" xmlns="http://www.w3.org/2000/svg" xmlns:xlink="http://www.w3.org/1999/xlink" x="0px" y="0px"
	 width="1495.425px" height="541.473px" viewBox="0 0 1495.425 541.473" enable-background="new 0 0 1495.425 541.473"
	 xml:space="preserve">
<polygon fill="#349DF4" points="932.17,356.197 746.59,463.342 561.011,356.197 561.011,141.909 746.59,34.765 932.17,141.909 "/>
<path fill="#FFFFFF" d="M697.979,374.911c-0.345-0.596-0.146-1.34,0.45-1.684l3.438-1.985c1.108-0.64,2.157-0.84,3.032-0.604
	c0.7,0.188,1.234,0.6,1.618,1.266l0.017,0.027c0.632,1.095,0.401,2.041-0.067,2.829c1.37-0.219,2.439,0.033,3.192,1.337l0.016,0.026
	c1.024,1.774,0.096,3.495-2.095,4.759l-3.549,2.049c-0.596,0.345-1.339,0.145-1.683-0.451L697.979,374.911z M703.675,375.429
	c0.942-0.544,1.363-1.192,0.947-1.913l-0.017-0.028c-0.368-0.637-1.075-0.709-1.976-0.189l-2.107,1.217l1.185,2.051L703.675,375.429
	z M706.501,379.011c0.942-0.545,1.318-1.205,0.902-1.926l-0.017-0.028c-0.376-0.651-1.093-0.774-2.188-0.142l-2.467,1.425
	l1.232,2.136L706.501,379.011z"/>
<g>
	<path fill="#FFFFFF" d="M743.369,365.41v-5.266c0-0.688,0.546-1.232,1.233-1.232c0.688,0,1.232,0.544,1.232,1.232v5.201
		c0,1.826,0.913,2.77,2.417,2.77c1.505,0,2.417-0.912,2.417-2.689v-5.281c0-0.688,0.545-1.232,1.232-1.232
		c0.688,0,1.233,0.544,1.233,1.232v5.186c0,3.394-1.905,5.059-4.914,5.059C745.211,370.389,743.369,368.708,743.369,365.41z"/>
</g>
<path fill="#FFFFFF" d="M784.751,377.135l4.37-7.569c0.343-0.596,1.087-0.795,1.683-0.451l5.379,3.105
	c0.527,0.304,0.708,0.981,0.404,1.509c-0.305,0.527-0.975,0.695-1.501,0.391l-4.325-2.497l-1.136,1.968l3.701,2.138
	c0.526,0.304,0.708,0.981,0.404,1.509c-0.305,0.526-0.975,0.693-1.501,0.39l-3.701-2.137l-1.177,2.038l4.395,2.537
	c0.526,0.304,0.708,0.981,0.404,1.509c-0.305,0.526-0.975,0.694-1.501,0.391l-5.447-3.146
	C784.605,378.474,784.407,377.73,784.751,377.135z"/>
<circle fill="#FFFFFF" cx="748.521" cy="250.045" r="0.525"/>
<g>
	<path fill="#F9FF00" d="M747.02,255.299c2.896,0,5.253-2.356,5.253-5.253s-2.356-5.254-5.253-5.254s-5.253,2.358-5.253,5.254
		S744.123,255.299,747.02,255.299z M747.02,249.52c0.29,0,0.525,0.235,0.525,0.526c0,0.289-0.235,0.524-0.525,0.524
		c-0.29,0-0.525-0.235-0.525-0.524C746.494,249.755,746.729,249.52,747.02,249.52z"/>
	<path fill="#FFFFFF" d="M843.476,175.053c0-1.305-1.058-2.364-2.363-2.364H652.515c-1.306,0-2.364,1.059-2.364,2.364
		s1.058,2.364,2.364,2.364h188.598C842.418,177.417,843.476,176.358,843.476,175.053z"/>
	<path fill="#FFFFFF" d="M823.831,105.919l-75.883-43.812c-0.003-0.002-0.007-0.002-0.01-0.004c-0.089-0.05-0.182-0.089-0.276-0.124
		c-0.013-0.005-0.023-0.015-0.036-0.019c-0.004-0.001-0.009-0.001-0.014-0.002c-0.025-0.009-0.052-0.014-0.077-0.021
		c-0.041-0.012-0.082-0.018-0.123-0.027c-0.099-0.021-0.198-0.035-0.3-0.04c-0.023-0.001-0.045-0.008-0.068-0.008
		c-0.027,0-0.054,0.003-0.082,0.004c-0.128,0.003-0.255,0.019-0.38,0.05c-0.015,0.003-0.03,0.003-0.044,0.007
		c-0.01,0.002-0.02,0.007-0.03,0.01c-0.016,0.004-0.03,0.013-0.046,0.018c-0.112,0.035-0.222,0.082-0.328,0.139
		c-0.014,0.007-0.029,0.01-0.042,0.018l-74.661,43.105c-0.889,0.513-1.192,1.648-0.679,2.537c0.512,0.89,1.65,1.193,2.536,0.679
		l66.353-38.309l-28.22,36.002c-0.632,0.808-0.491,1.976,0.315,2.608c0.81,0.632,1.976,0.492,2.608-0.315l30.819-39.32v38.432
		c0,1.025,0.832,1.857,1.857,1.857c1.025,0,1.857-0.832,1.857-1.857V69.095l30.819,39.32c0.366,0.466,0.911,0.71,1.462,0.71
		c0.4,0,0.805-0.129,1.146-0.395c0.807-0.632,0.947-1.8,0.315-2.608l-28.22-36.002l67.576,39.015
		c0.292,0.169,0.611,0.249,0.927,0.249c0.641,0,1.266-0.333,1.609-0.928C825.023,107.567,824.72,106.432,823.831,105.919z"/>
	<path fill="#FFFFFF" d="M823.287,388.846c-0.512-0.89-1.65-1.193-2.536-0.68L754.4,426.473l28.219-36
		c0.633-0.808,0.491-1.976-0.315-2.607c-0.81-0.631-1.976-0.491-2.607,0.315l-30.82,39.319v-38.432c0-1.025-0.832-1.857-1.857-1.857
		c-1.025,0-1.857,0.832-1.857,1.857v38.431l-30.819-39.318c-0.632-0.807-1.798-0.948-2.608-0.315
		c-0.806,0.632-0.948,1.8-0.315,2.607l28.218,36l-67.573-39.013c-0.887-0.513-2.024-0.209-2.537,0.68
		c-0.512,0.889-0.209,2.023,0.68,2.536l75.883,43.812c0.018,0.01,0.038,0.013,0.056,0.022c0.066,0.035,0.133,0.063,0.203,0.091
		c0.023,0.009,0.041,0.025,0.064,0.034c0.019,0.006,0.039,0.004,0.058,0.01c0.035,0.011,0.067,0.024,0.102,0.033
		c0.144,0.035,0.291,0.057,0.439,0.058l0.007,0.001h0h0c0,0,0.002-0.001,0.003-0.001c0.15,0,0.299-0.021,0.444-0.058
		c0.031-0.008,0.061-0.021,0.092-0.03c0.042-0.013,0.081-0.029,0.122-0.045c0.072-0.027,0.143-0.056,0.211-0.093
		c0.018-0.01,0.038-0.013,0.056-0.022l74.66-43.105C823.496,390.869,823.8,389.734,823.287,388.846z"/>
	<circle fill="#FFFFFF" cx="828.295" cy="385.35" r="2.328"/>
	<circle fill="#FFFFFF" cx="664.783" cy="385.35" r="2.327"/>
	<path fill="#FFFFFF" d="M699.854,382.022l-0.014-0.025 M707.292,383.917 M707.363,377.715"/>
	<path fill="#FFFFFF" d="M936.002,136.146L750.424,29.001c-2.106-1.216-4.703-1.216-6.809,0l-185.58,107.145
		c-2.107,1.216-3.404,3.463-3.404,5.896v214.289c0,2.432,1.297,4.68,3.404,5.896l185.58,107.145
		c1.053,0.609,2.229,0.913,3.405,0.913c1.175,0,2.352-0.305,3.404-0.913l185.578-107.145c2.107-1.216,3.405-3.464,3.405-5.896
		V142.042C939.407,139.609,938.109,137.362,936.002,136.146z M747.02,42.76l178.77,103.213v30.262h-21.867
		c-1.306,0-2.363,1.059-2.363,2.364v7.092h-27.088v-55.161c0-1.305-1.059-2.364-2.364-2.364h-252.95
		c-1.306,0-2.364,1.059-2.364,2.364v55.161h-27.087v-7.092c0-1.305-1.058-2.364-2.364-2.364h-19.092v-30.262L747.02,42.76z
		 M907.305,300.479h16.135v11.82h-16.135V300.479z M907.305,295.751v-11.82h16.135v11.82H907.305z M925.789,241.917l-0.311-0.539
		h0.311V241.917z M922.748,236.65l-2.578-4.466h5.619v4.466H922.748z M920.17,227.456l3.033-5.253h2.586v5.253H920.17z
		 M925.789,208.268l-11.761,20.37c-0.016,0.027-0.021,0.057-0.035,0.084c-0.067,0.127-0.122,0.261-0.165,0.401
		c-0.016,0.047-0.032,0.093-0.044,0.141c-0.044,0.179-0.073,0.363-0.073,0.556s0.029,0.376,0.073,0.556
		c0.012,0.048,0.028,0.094,0.044,0.141c0.043,0.14,0.098,0.273,0.165,0.4c0.015,0.027,0.02,0.058,0.035,0.084l11.761,20.371v27.83
		H904.94c-1.306,0-2.364,1.06-2.364,2.364v16.548v16.549c0,1.305,1.059,2.364,2.364,2.364h20.849v23.113h-30.338V199.875h8.471
		h21.867V208.268z M570.536,222.203l3.033,5.253h-5.321v-5.253H570.536z M573.569,232.184l-2.579,4.466h-2.742v-4.466H573.569z
		 M568.26,241.378l-0.012,0.021v-0.021H568.26z M583.958,295.751H570.3v-11.82h13.659V295.751z M583.958,300.479v11.82H570.3v-11.82
		H583.958z M568.248,317.027h18.074c1.306,0,2.364-1.06,2.364-2.364v-16.549v-16.548c0-1.305-1.058-2.364-2.364-2.364h-18.074
		v-28.347l11.462-19.854c0.016-0.026,0.021-0.057,0.035-0.084c0.068-0.127,0.123-0.261,0.166-0.4
		c0.015-0.047,0.032-0.093,0.043-0.141c0.043-0.179,0.073-0.363,0.073-0.556s-0.029-0.377-0.073-0.556
		c-0.011-0.048-0.029-0.094-0.043-0.141c-0.043-0.14-0.098-0.273-0.166-0.401c-0.014-0.027-0.019-0.058-0.035-0.084l-11.462-19.852
		v-8.91h19.092h8.471v140.265h-27.563V317.027z M584.977,188.055v7.092h-16.729v-14.184h16.729V188.055z M598.175,195.147h-8.471
		v-4.728h27.087v144.206v5.516H600.54V197.511C600.54,196.206,599.481,195.147,598.175,195.147z M869.742,188.055v144.206h-3.151
		v-12.214c0-1.306-1.059-2.364-2.364-2.364h-5.517v-12.214c0-1.306-1.058-2.364-2.363-2.364h-5.517v-12.214
		c0-1.306-1.058-2.364-2.364-2.364h-4.728v-88.651h4.728c1.307,0,2.364-1.059,2.364-2.364v-7.092h5.517
		c1.306,0,2.363-1.059,2.363-2.364v-26.004c0-1.305-1.058-2.364-2.363-2.364h-217.49c-1.306,0-2.364,1.059-2.364,2.364v26.004
		c0,1.305,1.058,2.364,2.364,2.364h5.516v7.092c0,1.305,1.058,2.364,2.364,2.364h4.728v88.651h-4.728
		c-1.306,0-2.364,1.059-2.364,2.364v12.214h-5.516c-1.306,0-2.364,1.059-2.364,2.364v12.214h-9.193
		c-1.306,0-2.364,1.059-2.364,2.364v12.214h-3.415V188.055v-55.16h248.222V188.055z M653.829,195.147h-4.728v-4.728h32.308v4.728
		h-4.728c-1.306,0-2.364,1.059-2.364,2.364v91.015h-18.125v-91.015C656.192,196.206,655.134,195.147,653.829,195.147z
		 M641.22,185.691v-21.276h212.762v21.276h-5.517h-36.248H683.773h-37.037H641.22z M839.01,197.511v91.015h-17.336v-91.015
		c0-1.305-1.058-2.364-2.363-2.364h-4.729v-4.728h31.521v4.728h-4.729C840.068,195.147,839.01,196.206,839.01,197.511z
		 M769.928,266.819h14.606l-12.171,21.08h-2.436V266.819z M787.265,262.091h-17.337v-13.95h25.391L787.265,262.091z
		 M769.928,243.413v-15.549h16.413l8.978,15.549H769.928z M769.928,223.135v-19.48h2.436l11.248,19.48H769.928z M765.2,245.777
		v42.123h-34.672v-23.444v-18.678V225.5v-21.844H765.2V245.777z M725.8,223.135h-13.322l11.248-19.48h2.075V223.135z
		 M709.748,227.863H725.8v15.549h-25.03L709.748,227.863z M725.8,248.141v13.95h-16.976l-8.054-13.95H725.8z M725.8,266.819v21.08
		h-2.075l-12.171-21.08H725.8z M801.46,246.959c0.016-0.027,0.021-0.057,0.035-0.084c0.067-0.127,0.122-0.261,0.165-0.401
		c0.015-0.047,0.032-0.093,0.044-0.141c0.044-0.179,0.073-0.363,0.073-0.556s-0.029-0.376-0.073-0.556
		c-0.012-0.048-0.029-0.094-0.044-0.141c-0.043-0.14-0.098-0.273-0.165-0.401c-0.015-0.027-0.02-0.058-0.035-0.084l-25.685-44.485
		c-0.422-0.731-1.202-1.182-2.047-1.182h-6.165h-39.4h-5.804c-0.845,0-1.625,0.451-2.047,1.182l-25.685,44.485
		c-0.015,0.027-0.02,0.057-0.035,0.084c-0.067,0.128-0.122,0.262-0.166,0.402c-0.014,0.047-0.032,0.092-0.043,0.141
		c-0.043,0.179-0.073,0.363-0.073,0.556s0.029,0.377,0.073,0.556c0.012,0.048,0.029,0.093,0.043,0.14
		c0.043,0.14,0.099,0.274,0.166,0.402c0.015,0.027,0.02,0.057,0.035,0.084l23.999,41.567h-39.582v-88.651h4.728
		c1.306,0,2.364-1.059,2.364-2.364v-7.092h123.717v7.092c0,1.305,1.059,2.364,2.364,2.364h4.729v88.651h-39.485L801.46,246.959z
		 M841.374,293.254h4.729v9.851H649.101v-9.851h4.728H841.374z M848.466,307.832h5.517v9.851H641.22v-9.851h5.516H848.466z
		 M856.347,322.41h5.516v9.851h-232.2v-9.851h9.194H856.347z M621.52,342.505v-5.517h5.779h236.928h5.516v5.517v4.334H621.52
		V342.505z M874.471,334.625V190.419h27.088v4.728h-8.472c-1.306,0-2.364,1.059-2.364,2.364v142.629h-16.252V334.625z
		 M906.286,195.147v-7.092v-7.092h19.503v14.184H906.286z M747.02,455.613L568.248,352.399v-7.53h29.926h0.001h18.617v4.334
		c0,1.305,1.058,2.363,2.364,2.363h252.95c1.306,0,2.364-1.059,2.364-2.363v-4.334h18.616h0.002h32.7v7.53L747.02,455.613z"/>
	<path fill="#FFFFFF" d="M680.099,153.235c0.794,0,1.437-0.644,1.437-1.438v-7.087l5.822,7.635c0.397,0.511,0.813,0.851,1.512,0.851
		h0.095c0.813,0,1.455-0.642,1.455-1.456v-10.527c0-0.794-0.643-1.438-1.437-1.438c-0.793,0-1.436,0.644-1.436,1.438v6.823
		l-5.614-7.371c-0.397-0.511-0.813-0.851-1.512-0.851h-0.303c-0.813,0-1.456,0.644-1.456,1.456v10.527
		C678.662,152.592,679.305,153.235,680.099,153.235z"/>
	<path fill="#FFFFFF" d="M700.029,153.348c4.083,0,7.05-3.08,7.05-6.841v-0.039c0-3.761-2.929-6.804-7.012-6.804
		c-4.083,0-7.051,3.082-7.051,6.843v0.037C693.017,150.305,695.947,153.348,700.029,153.348z M696.06,146.468
		c0-2.269,1.626-4.12,3.969-4.12c2.344,0,4.008,1.89,4.008,4.159v0.037c0,2.269-1.626,4.12-3.969,4.12
		c-2.344,0-4.008-1.89-4.008-4.157V146.468z"/>
	<path fill="#FFFFFF" d="M711.134,153.121h3.705c4.159,0,7.031-2.892,7.031-6.615v-0.039c0-3.723-2.873-6.578-7.031-6.578h-3.705
		c-0.813,0-1.456,0.643-1.456,1.456v10.32C709.678,152.478,710.32,153.121,711.134,153.121z M712.589,142.517h2.25
		c2.381,0,3.988,1.646,3.988,3.989v0.037c0,2.344-1.606,3.951-3.988,3.951h-2.25V142.517z"/>
	<path fill="#FFFFFF" d="M725.923,153.121h7.428c0.718,0,1.304-0.566,1.304-1.285s-0.585-1.305-1.304-1.305h-5.992v-2.778h5.047
		c0.718,0,1.304-0.566,1.304-1.285s-0.585-1.304-1.304-1.304h-5.047v-2.684h5.898c0.718,0,1.304-0.568,1.304-1.285
		c0-0.719-0.586-1.305-1.304-1.305h-7.334c-0.813,0-1.456,0.643-1.456,1.456v10.32C724.468,152.478,725.11,153.121,725.923,153.121z
		"/>
	<path fill="#FFFFFF" d="M736.874,151.722c1.475,1.059,3.233,1.588,4.971,1.588c2.854,0,4.858-1.474,4.858-4.102v-0.039
		c0-2.305-1.512-3.269-4.196-3.969c-2.287-0.586-2.854-0.87-2.854-1.739v-0.037c0-0.644,0.586-1.153,1.702-1.153
		c0.907,0,1.814,0.32,2.778,0.888c0.227,0.132,0.454,0.208,0.737,0.208c0.756,0,1.361-0.586,1.361-1.342
		c0-0.567-0.322-0.963-0.643-1.152c-1.191-0.756-2.59-1.173-4.196-1.173c-2.704,0-4.631,1.588-4.631,3.989v0.037
		c0,2.627,1.72,3.365,4.385,4.045c2.212,0.568,2.666,0.945,2.666,1.682v0.039c0,0.776-0.719,1.248-1.909,1.248
		c-1.285,0-2.382-0.454-3.384-1.191c-0.188-0.132-0.453-0.265-0.831-0.265c-0.756,0-1.361,0.587-1.361,1.342
		C736.326,151.081,736.553,151.496,736.874,151.722z"/>
	<path fill="#FFFFFF" d="M755.442,153.348c2.117,0,3.515-0.624,4.706-1.662c0.265-0.228,0.491-0.586,0.491-1.041
		c0-0.737-0.623-1.342-1.36-1.342c-0.341,0-0.643,0.132-0.87,0.322c-0.831,0.662-1.645,1.039-2.872,1.039
		c-2.269,0-3.838-1.89-3.838-4.157v-0.039c0-2.269,1.606-4.12,3.838-4.12c1.039,0,1.89,0.34,2.702,0.945
		c0.208,0.132,0.473,0.283,0.87,0.283c0.793,0,1.437-0.624,1.437-1.417c0-0.511-0.265-0.927-0.567-1.153
		c-1.097-0.813-2.438-1.342-4.423-1.342c-4.064,0-6.899,3.082-6.899,6.843v0.037C748.656,150.343,751.549,153.348,755.442,153.348z"
		/>
	<path fill="#FFFFFF" d="M764.655,153.235c0.813,0,1.455-0.644,1.455-1.456v-3.969h5.368v3.969c0,0.813,0.643,1.456,1.455,1.456
		s1.455-0.644,1.455-1.456v-10.547c0-0.813-0.643-1.456-1.455-1.456s-1.455,0.644-1.455,1.456v3.894h-5.368v-3.894
		c0-0.813-0.643-1.456-1.455-1.456c-0.813,0-1.456,0.644-1.456,1.456v10.547C763.199,152.592,763.842,153.235,764.655,153.235z"/>
	<path fill="#FFFFFF" d="M784,153.348c4.082,0,7.05-3.08,7.05-6.841v-0.039c0-3.761-2.93-6.804-7.013-6.804s-7.05,3.082-7.05,6.843
		v0.037C776.987,150.305,779.917,153.348,784,153.348z M780.029,146.468c0-2.269,1.627-4.12,3.971-4.12
		c2.343,0,4.007,1.89,4.007,4.159v0.037c0,2.269-1.626,4.12-3.97,4.12s-4.008-1.89-4.008-4.157V146.468z"/>
	<path fill="#FFFFFF" d="M800.074,153.348c4.083,0,7.05-3.08,7.05-6.841v-0.039c0-3.761-2.93-6.804-7.012-6.804
		c-4.083,0-7.051,3.082-7.051,6.843v0.037C793.062,150.305,795.991,153.348,800.074,153.348z M796.104,146.468
		c0-2.269,1.626-4.12,3.97-4.12s4.008,1.89,4.008,4.159v0.037c0,2.269-1.626,4.12-3.97,4.12s-4.008-1.89-4.008-4.157V146.468z"/>
	<path fill="#FFFFFF" d="M811.179,153.121h6.842c0.737,0,1.323-0.586,1.323-1.323s-0.586-1.322-1.323-1.322h-5.387v-9.244
		c0-0.813-0.643-1.456-1.455-1.456c-0.813,0-1.456,0.644-1.456,1.456v10.434C809.723,152.478,810.365,153.121,811.179,153.121z"/>
</g>
</svg>
